# xmcd CD database file
#
# Track frame offsets:
#	150
#	13342
#	23034
#	32329
#	53494
#	66584
#
# Disc length: 1325 seconds
#
# Revision: 1
# Processed by: cddbd v1.5.1PL2 Copyright (c) Steve Scherf et al.
# Submitted via: CDex 1.51
#
DISCID=45052b06
DTITLE=David Bremer - Breakdowns
DYEAR=2006
DGENRE=Country
TTITLE0=Jig
TTITLE1=Clog Dance
TTITLE2=Medley
TTITLE3=Lullaby
TTITLE4=Sunrise
TTITLE5=Forever
EXTD=YEAR: 2006
EXTT0=
EXTT1=
EXTT2=
EXTT3=
EXTT4=
EXTT5=
PLAYORDER=
